{
  "accessors": [
    {
      "bufferView": 2,
      "componentType": 5126,
      "count": 2189,
      "max": [
        13.12660026550293,
        5.97556209564209,
        71.38809967041016
      ],
      "min": [
        -13.124600410461426,
        -7.658160209655762,
        0.1173378974199295
      ],
      "type": "VEC3"
    },
    {
      "bufferView": 2,
      "byteOffset": 26268,
      "componentType": 5126,
      "count": 2189,
      "max": [
        1.0,
        1.0,
        1.0
      ],
      "min": [
        -1.0,
        -1.0,
        -1.0
      ],
      "type": "VEC3"
    },
    {
      "bufferView": 1,
      "componentType": 5126,
      "count": 2189,
      "max": [
        0.10169190168380737,
        0.27144479751586914
      ],
      "min": [
        -0.10170750319957733,
        -0.02991469018161297
      ],
      "type": "VEC2"
    },
    {
      "bufferView": 0,
      "componentType": 5125,
      "count": 2523,
      "type": "SCALAR"
    },
    {
      "bufferView": 2,
      "byteOffset": 52536,
      "componentType": 5126,
      "count": 1753,
      "max": [
        13.12660026550293,
        5.97556209564209,
        71.38809967041016
      ],
      "min": [
        -13.124600410461426,
        -7.658160209655762,
        0.1173378974199295
      ],
      "type": "VEC3"
    },
    {
      "bufferView": 2,
      "byteOffset": 73572,
      "componentType": 5126,
      "count": 1753,
      "max": [
        1.0,
        1.0,
        1.0
      ],
      "min": [
        -0.9933589100837708,
        -1.0,
        -1.0
      ],
      "type": "VEC3"
    },
    {
      "bufferView": 1,
      "byteOffset": 17512,
      "componentType": 5126,
      "count": 1753,
      "max": [
        0.10169190168380737,
        0.27144479751586914
      ],
      "min": [
        -0.10170750319957733,
        -0.02991469018161297
      ],
      "type": "VEC2"
    },
    {
      "bufferView": 0,
      "byteOffset": 10092,
      "componentType": 5125,
      "count": 1872,
      "type": "SCALAR"
    },
    {
      "bufferView": 2,
      "byteOffset": 94608,
      "componentType": 5126,
      "count": 436,
      "max": [
        2.9753799438476563,
        -3.5276269912719727,
        66.63960266113281
      ],
      "min": [
        -2.9099700450897217,
        -5.556467056274414,
        60.74610137939453
      ],
      "type": "VEC3"
    },
    {
      "bufferView": 2,
      "byteOffset": 99840,
      "componentType": 5126,
      "count": 436,
      "max": [
        1.0,
        1.0,
        1.0
      ],
      "min": [
        -1.0,
        -1.0,
        -1.0
      ],
      "type": "VEC3"
    },
    {
      "bufferView": 1,
      "byteOffset": 31536,
      "componentType": 5126,
      "count": 436,
      "max": [
        0.08487551659345627,
        1.0412440299987793
      ],
      "min": [
        -0.08430448919534683,
        -0.08069386333227158
      ],
      "type": "VEC2"
    },
    {
      "bufferView": 0,
      "byteOffset": 17580,
      "componentType": 5125,
      "count": 651,
      "type": "SCALAR"
    },
    {
      "bufferView": 2,
      "byteOffset": 105072,
      "componentType": 5126,
      "count": 13,
      "max": [
        32.0,
        32.0,
        72.0
      ],
      "min": [
        0.0,
        0.0,
        0.0
      ],
      "type": "VEC3"
    },
    {
      "bufferView": 0,
      "byteOffset": 20184,
      "componentType": 5125,
      "count": 40,
      "type": "SCALAR"
    }
  ],
  "asset": {
    "extras": {
      "author": "VeraxonHD (https://sketchfab.com/veraxonhd)",
      "license": "CC-BY-4.0 (http://creativecommons.org/licenses/by/4.0/)",
      "source": "https://sketchfab.com/3d-models/info-player-start-8834a4f82f384bc9a9f614a68c12fca6",
      "title": "info_player_start"
    },
    "generator": "Sketchfab-12.63.0",
    "version": "2.0"
  },
  "bufferViews": [
    {
      "buffer": 0,
      "byteLength": 20344,
      "name": "floatBufferViews",
      "target": 34963
    },
    {
      "buffer": 0,
      "byteLength": 35024,
      "byteOffset": 20344,
      "byteStride": 8,
      "name": "floatBufferViews",
      "target": 34962
    },
    {
      "buffer": 0,
      "byteLength": 105228,
      "byteOffset": 55368,
      "byteStride": 12,
      "name": "floatBufferViews",
      "target": 34962
    }
  ],
  "buffers": [
    {
      "byteLength": 160596,
      "uri": "scene.bin"
    }
  ],
  "materials": [
    {
      "name": "edge_color000255",
      "pbrMetallicRoughness": {
        "metallicFactor": 0.0,
        "roughnessFactor": 0.6
      }
    },
    {
      "name": "Image1",
      "pbrMetallicRoughness": {
        "baseColorFactor": [
          0.0034381442945739657,
          0.21404114048223255,
          0.0,
          1.0
        ],
        "metallicFactor": 0.0,
        "roughnessFactor": 0.6
      }
    },
    {
      "name": "Image1_0",
      "pbrMetallicRoughness": {
        "metallicFactor": 0.0,
        "roughnessFactor": 0.6
      }
    },
    {
      "name": "Image2",
      "pbrMetallicRoughness": {
        "baseColorFactor": [
          0.0,
          0.0,
          0.0,
          1.0
        ],
        "metallicFactor": 0.0,
        "roughnessFactor": 0.6
      }
    }
  ],
  "meshes": [
    {
      "name": "Material3",
      "primitives": [
        {
          "attributes": {
            "NORMAL": 1,
            "POSITION": 0,
            "TEXCOORD_0": 2
          },
          "indices": 3,
          "material": 2,
          "mode": 4
        }
      ]
    },
    {
      "name": "Material2",
      "primitives": [
        {
          "attributes": {
            "NORMAL": 5,
            "POSITION": 4,
            "TEXCOORD_0": 6
          },
          "indices": 7,
          "material": 1,
          "mode": 4
        }
      ]
    },
    {
      "name": "Material3",
      "primitives": [
        {
          "attributes": {
            "NORMAL": 9,
            "POSITION": 8,
            "TEXCOORD_0": 10
          },
          "indices": 11,
          "material": 3,
          "mode": 4
        }
      ]
    },
    {
      "name": "Material2",
      "primitives": [
        {
          "attributes": {
            "POSITION": 12
          },
          "indices": 13,
          "material": 0,
          "mode": 1
        }
      ]
    }
  ],
  "nodes": [
    {
      "children": [
        1
      ],
      "matrix": [
        1.0,
        0.0,
        0.0,
        0.0,
        0.0,
        2.220446049250313e-16,
        -1.0,
        0.0,
        0.0,
        1.0,
        2.220446049250313e-16,
        0.0,
        0.0,
        0.0,
        0.0,
        1.0
      ],
      "name": "Sketchfab_model"
    },
    {
      "children": [
        2
      ],
      "name": "Collada visual scene group"
    },
    {
      "children": [
        3,
        5
      ],
      "name": "SketchUp"
    },
    {
      "children": [
        4
      ],
      "matrix": [
        0.9865727,
        0.1633223,
        -6.938894e-18,
        0.0,
        -0.03767921,
        0.2276069,
        0.9730238,
        0.0,
        0.1589165,
        -0.9599588,
        0.2307047,
        0.0,
        42.71208,
        -101.7209,
        64.79483,
        1.0
      ],
      "name": "skp_camera_Last_Saved_SketchUp_View"
    },
    {
      "name": "ID1"
    },
    {
      "children": [
        6
      ],
      "name": "instance_0"
    },
    {
      "children": [
        14,
        7
      ],
      "name": "info_player_start"
    },
    {
      "children": [
        8
      ],
      "matrix": [
        1.0,
        0.0,
        0.0,
        0.0,
        0.0,
        1.0,
        0.0,
        0.0,
        0.0,
        0.0,
        1.0,
        0.0,
        15.999,
        16.8413,
        -0.1173379,
        1.0
      ],
      "name": "instance_1"
    },
    {
      "children": [
        9
      ],
      "name": "skp44D6"
    },
    {
      "children": [
        10
      ],
      "name": "instance_2"
    },
    {
      "children": [
        11,
        12,
        13
      ],
      "name": "playerstar"
    },
    {
      "mesh": 0,
      "name": "Material3"
    },
    {
      "mesh": 1,
      "name": "Material2"
    },
    {
      "mesh": 2,
      "name": "Material3"
    },
    {
      "mesh": 3,
      "name": "Material2"
    }
  ],
  "scene": 0,
  "scenes": [
    {
      "name": "Sketchfab_Scene",
      "nodes": [
        0
      ]
    }
  ]
}
